<mxfile host="app.diagrams.net" agent="Mozilla/5.0 (Windows NT 10.0; Win64; x64; rv:139.0) Gecko/20100101 Firefox/139.0" version="27.1.6">
  <diagram id="home-network-guardian" name="Home Network Guardian">
    <mxGraphModel dx="1390" dy="537" grid="1" gridSize="10" guides="1" tooltips="1" connect="1" arrows="1" fold="1" page="1" pageScale="1" pageWidth="827" pageHeight="1169" math="0" shadow="0">
      <root>
        <mxCell id="0" />
        <mxCell id="1" parent="0" />
        <mxCell id="2" value="" style="rounded=1;whiteSpace=wrap;html=1;strokeColor=#333333;" parent="1" vertex="1">
          <mxGeometry x="50" y="100" width="170" height="280" as="geometry" />
        </mxCell>
        <mxCell id="3" value="UrzÄ…dzenia" style="text;html=1;strokeColor=none;fillColor=none;fontSize=14;fontStyle=1;" parent="2" vertex="1">
          <mxGeometry x="40" width="170" height="30" as="geometry" />
        </mxCell>
        <mxCell id="4" value="ðŸ“± Smartphone" style="text;html=1;strokeColor=none;fillColor=none;align=left;" parent="2" vertex="1">
          <mxGeometry x="30" y="66" width="140" height="25" as="geometry" />
        </mxCell>
        <mxCell id="5" value="ðŸ’» Tablet" style="text;html=1;strokeColor=none;fillColor=none;align=left;" parent="2" vertex="1">
          <mxGeometry x="30" y="96" width="140" height="25" as="geometry" />
        </mxCell>
        <mxCell id="6" value="ðŸ–¥ Laptop" style="text;html=1;strokeColor=none;fillColor=none;align=left;" parent="2" vertex="1">
          <mxGeometry x="30" y="126" width="140" height="25" as="geometry" />
        </mxCell>
        <mxCell id="7" value="ðŸ“º Smart TV" style="text;html=1;strokeColor=none;fillColor=none;align=left;" parent="2" vertex="1">
          <mxGeometry x="30" y="156" width="140" height="25" as="geometry" />
        </mxCell>
        <mxCell id="8" value="âš¬ IoT Devices" style="text;html=1;strokeColor=none;fillColor=none;align=left;" parent="2" vertex="1">
          <mxGeometry x="30" y="186" width="140" height="25" as="geometry" />
        </mxCell>
        <mxCell id="10" value="" style="rounded=1;whiteSpace=wrap;html=1;strokeColor=#333333;" parent="1" vertex="1">
          <mxGeometry x="250" y="100" width="210" height="280" as="geometry" />
        </mxCell>
        <mxCell id="11" value="DNS oraz proxy" style="text;html=1;strokeColor=none;fillColor=none;fontSize=14;fontStyle=1;" parent="10" vertex="1">
          <mxGeometry x="50" width="210" height="30" as="geometry" />
        </mxCell>
        <mxCell id="12" value="Pi-hole" style="rounded=1;fillColor=#3E5060;strokeColor=none;fontColor=#FFFFFF;align=center;verticalAlign=middle;" parent="10" vertex="1">
          <mxGeometry x="25" y="64" width="160" height="32" as="geometry" />
        </mxCell>
        <mxCell id="13" value="Unbound" style="rounded=1;fillColor=#3E5060;strokeColor=none;fontColor=#FFFFFF;align=center;verticalAlign=middle;" parent="10" vertex="1">
          <mxGeometry x="25" y="104" width="160" height="32" as="geometry" />
        </mxCell>
        <mxCell id="14" value="Squid Proxy" style="rounded=1;fillColor=#3E5060;strokeColor=none;fontColor=#FFFFFF;align=center;verticalAlign=middle;" parent="10" vertex="1">
          <mxGeometry x="25" y="144" width="160" height="32" as="geometry" />
        </mxCell>
        <mxCell id="15" value="Squid Proxy (Tab)" style="rounded=1;fillColor=#3E5060;strokeColor=none;fontColor=#FFFFFF;align=center;verticalAlign=middle;" parent="10" vertex="1">
          <mxGeometry x="25" y="184" width="160" height="32" as="geometry" />
        </mxCell>
        <mxCell id="20" value="" style="rounded=1;whiteSpace=wrap;html=1;strokeColor=#333333;" parent="1" vertex="1">
          <mxGeometry x="490" y="100" width="190" height="280" as="geometry" />
        </mxCell>
        <mxCell id="21" value="Detekcja" style="text;html=1;strokeColor=none;fillColor=none;fontSize=14;fontStyle=1;" parent="20" vertex="1">
          <mxGeometry x="60" width="190" height="38.18181818181819" as="geometry" />
        </mxCell>
        <mxCell id="22" value="Suricata IDS" style="rounded=1;fillColor=#3E5060;strokeColor=none;fontColor=#FFFFFF;align=center;verticalAlign=middle;" parent="20" vertex="1">
          <mxGeometry x="15" y="65.90909090909092" width="160" height="40.727272727272734" as="geometry" />
        </mxCell>
        <mxCell id="23" value="Filebeat" style="rounded=1;fillColor=#3E5060;strokeColor=none;fontColor=#FFFFFF;align=center;verticalAlign=middle;" parent="20" vertex="1">
          <mxGeometry x="15" y="116.81818181818184" width="160" height="40.727272727272734" as="geometry" />
        </mxCell>
        <mxCell id="24" value="cAdvisor" style="rounded=1;fillColor=#3E5060;strokeColor=none;fontColor=#FFFFFF;align=center;verticalAlign=middle;" parent="20" vertex="1">
          <mxGeometry x="15" y="167.72727272727275" width="160" height="40.727272727272734" as="geometry" />
        </mxCell>
        <mxCell id="30" value="" style="rounded=1;whiteSpace=wrap;html=1;strokeColor=#333333;" parent="1" vertex="1">
          <mxGeometry x="710" y="100" width="220" height="280" as="geometry" />
        </mxCell>
        <mxCell id="31" value="Monitoring" style="text;html=1;strokeColor=none;fillColor=none;fontSize=14;fontStyle=1;" parent="30" vertex="1">
          <mxGeometry x="70" width="220" height="35" as="geometry" />
        </mxCell>
        <mxCell id="32" value="Graylog" style="rounded=1;fillColor=#3E5060;strokeColor=none;fontColor=#FFFFFF;align=center;verticalAlign=middle;" parent="30" vertex="1">
          <mxGeometry x="30" y="46.66666666666666" width="160" height="37.33333333333333" as="geometry" />
        </mxCell>
        <mxCell id="33" value="Elasticsearch" style="rounded=1;fillColor=#3E5060;strokeColor=none;fontColor=#FFFFFF;align=center;verticalAlign=middle;" parent="30" vertex="1">
          <mxGeometry x="30" y="93.33333333333331" width="160" height="37.33333333333333" as="geometry" />
        </mxCell>
        <mxCell id="34" value="MongoDB" style="rounded=1;fillColor=#3E5060;strokeColor=none;fontColor=#FFFFFF;align=center;verticalAlign=middle;" parent="30" vertex="1">
          <mxGeometry x="30" y="140" width="160" height="37.33333333333333" as="geometry" />
        </mxCell>
        <mxCell id="35" value="Grafana" style="rounded=1;fillColor=#3E5060;strokeColor=none;fontColor=#FFFFFF;align=center;verticalAlign=middle;" parent="30" vertex="1">
          <mxGeometry x="30" y="186.66666666666663" width="160" height="37.33333333333333" as="geometry" />
        </mxCell>
        <mxCell id="41" style="edgeStyle=orthogonalEdgeStyle;rounded=0;orthogonalLoop=1;jettySize=auto;html=1;endArrow=block;endFill=1;" parent="1" source="2" target="10" edge="1">
          <mxGeometry relative="1" as="geometry" />
        </mxCell>
        <mxCell id="42" style="edgeStyle=orthogonalEdgeStyle;rounded=0;orthogonalLoop=1;jettySize=auto;html=1;endArrow=block;endFill=1;" parent="1" source="10" target="20" edge="1">
          <mxGeometry relative="1" as="geometry" />
        </mxCell>
        <mxCell id="43" style="edgeStyle=orthogonalEdgeStyle;rounded=0;orthogonalLoop=1;jettySize=auto;html=1;endArrow=block;endFill=1;" parent="1" source="20" target="30" edge="1">
          <mxGeometry relative="1" as="geometry" />
        </mxCell>
      </root>
    </mxGraphModel>
  </diagram>
</mxfile>
